<?xml version="1.0" encoding="iso-8859-1"?>
<!-- Generator: Adobe Illustrator 19.0.0, SVG Export Plug-In . SVG Version: 6.00 Build 0)  -->
<svg version="1.1" id="Capa_1" xmlns="http://www.w3.org/2000/svg" xmlns:xlink="http://www.w3.org/1999/xlink" x="0px" y="0px"
	 viewBox="0 0 512 512" style="enable-background:new 0 0 512 512;" xml:space="preserve">
<path style="fill:#17ACE8;" d="M497,151.067H240v-75c0-12.9-15.3-19.801-24.902-11.4l-210,180c-3.296,2.999-5.098,7.2-5.098,11.4
	c0,4.2,1.802,8.399,5.098,11.4l210,180c9.602,8.099,24.902,1.5,24.902-11.4v-75h257c8.401,0,15-6.601,15-15v-180
	C512,157.666,505.401,151.067,497,151.067z"/>
<path style="fill:#1689FC;" d="M512,256.067v90c0,8.399-6.599,15-15,15H240v75c0,12.9-15.3,19.499-24.902,11.4l-210-180
	c-3.296-3.001-5.098-7.2-5.098-11.4H512z"/>
<g>
</g>
<g>
</g>
<g>
</g>
<g>
</g>
<g>
</g>
<g>
</g>
<g>
</g>
<g>
</g>
<g>
</g>
<g>
</g>
<g>
</g>
<g>
</g>
<g>
</g>
<g>
</g>
<g>
</g>
</svg>
