<?xml version="1.0" encoding="iso-8859-1"?>
<!-- Generator: Adobe Illustrator 19.0.0, SVG Export Plug-In . SVG Version: 6.00 Build 0)  -->
<svg version="1.1" id="Capa_1" xmlns="http://www.w3.org/2000/svg" xmlns:xlink="http://www.w3.org/1999/xlink" x="0px" y="0px"
	 viewBox="0 0 512 512" style="enable-background:new 0 0 512 512;" xml:space="preserve">
<path style="fill:#0059AA;" d="M489.5,243.1l-90,53.399c-4.797,2.701-7.5,7.5-7.5,12.9v103.2c0,5.4,2.703,10.201,7.5,12.9l90,53.401
	c9.602,6,22.5-1.199,22.5-12.9V256C512,244.3,499.102,237.1,489.5,243.1z"/>
<path style="fill:#08469C;" d="M512,361v105c0,11.7-12.898,18.9-22.5,12.9l-90-53.401c-4.797-2.699-7.5-7.5-7.5-12.9V361H512z"/>
<path style="fill:#1689FC;" d="M377,226H45c-24.902,0-45,20.099-45,45v180c0,24.899,20.098,45,45,45h332c24.902,0,45-20.101,45-45
	V271C422,246.099,401.902,226,377,226z"/>
<path style="fill:#136EF1;" d="M422,361v90c0,24.899-20.098,45-45,45H45c-24.902,0-45-20.101-45-45v-90H422z"/>
<path style="fill:#0059AA;" d="M90,226c-49.629,0-90-40.371-90-90s40.371-90,90-90s90,40.371,90,90S139.629,226,90,226z"/>
<path style="fill:#08469C;" d="M287,226c-57.891,0-107-47.109-107-105S229.109,16,287,16s105,47.109,105,105S344.891,226,287,226z"
	/>
<path style="fill:#C5C9F7;" d="M287,181c-33.076,0-62-26.909-62-60s28.924-60,62-60s60,26.909,60,60S320.076,181,287,181z"/>
<path style="fill:#E1E4FB;" d="M90,181c-24.404,0-45-20.61-45-45s20.596-45,45-45s45,20.61,45,45S114.404,181,90,181z"/>
<g>
</g>
<g>
</g>
<g>
</g>
<g>
</g>
<g>
</g>
<g>
</g>
<g>
</g>
<g>
</g>
<g>
</g>
<g>
</g>
<g>
</g>
<g>
</g>
<g>
</g>
<g>
</g>
<g>
</g>
</svg>
