<?xml version="1.0" encoding="iso-8859-1"?>
<!-- Generator: Adobe Illustrator 19.0.0, SVG Export Plug-In . SVG Version: 6.00 Build 0)  -->
<svg version="1.1" id="Capa_1" xmlns="http://www.w3.org/2000/svg" xmlns:xlink="http://www.w3.org/1999/xlink" x="0px" y="0px"
	 viewBox="0 0 512 512" style="enable-background:new 0 0 512 512;" xml:space="preserve">
<path style="fill:#17ACE8;" d="M407,16.061H102.818c-19.797,0-19.797,30,0,30c41.4,0,75,33.6,75,75s-33.6,75-75,75
	c-19.797,0-19.797,30,0,30H407c57.898,0,105-47.1,105-105S464.898,16.061,407,16.061z"/>
<path style="fill:#1689FC;" d="M512,121.061c0,57.9-47.102,105-105,105H102.818c-19.797,0-19.797-30,0-30c41.4,0,75-33.6,75-75
	C177.818,121.061,512,121.061,512,121.061z"/>
<path style="fill:#17ACE8;" d="M404.818,466.061c-41.4,0-75-33.6-75-75s33.6-75,75-75c19.797,0,19.797-30,0-30H105
	c-57.898,0-105,47.1-105,105s47.102,105,105,105h299.818C424.615,496.061,424.615,466.061,404.818,466.061z"/>
<path style="fill:#1689FC;" d="M404.818,496.061H105c-57.898,0-105-47.1-105-105h329.818c0,41.4,33.6,75,75,75
	C424.615,466.061,424.615,496.061,404.818,496.061z"/>
<path style="fill:#E1E4FB;" d="M407,285.939c-57.898,0-105,47.1-105,105s47.102,105,105,105s105-47.1,105-105
	S464.898,285.939,407,285.939z"/>
<path style="fill:#C5C9F7;" d="M407,495.939c57.898,0,105-47.1,105-105H302C302,448.839,349.102,495.939,407,495.939z"/>
<path style="fill:#E1E4FB;" d="M105,15.939c-57.898,0-105,47.1-105,105s47.102,105,105,105s105-47.1,105-105
	S162.898,15.939,105,15.939z"/>
<path style="fill:#C5C9F7;" d="M105,225.939c57.898,0,105-47.1,105-105H0C0,178.839,47.102,225.939,105,225.939z"/>
<g>
</g>
<g>
</g>
<g>
</g>
<g>
</g>
<g>
</g>
<g>
</g>
<g>
</g>
<g>
</g>
<g>
</g>
<g>
</g>
<g>
</g>
<g>
</g>
<g>
</g>
<g>
</g>
<g>
</g>
</svg>
