<?xml version="1.0" encoding="iso-8859-1"?>
<!-- Generator: Adobe Illustrator 19.0.0, SVG Export Plug-In . SVG Version: 6.00 Build 0)  -->
<svg version="1.1" id="Capa_1" xmlns="http://www.w3.org/2000/svg" xmlns:xlink="http://www.w3.org/1999/xlink" x="0px" y="0px"
	 viewBox="0 0 512 512" style="enable-background:new 0 0 512 512;" xml:space="preserve">
<path style="fill:#0D70B2;" d="M226.8,328.4l-42.299-42.299c-6-6-15.601-6-21.301,0l-78.9,78.9l-58.801-58.5
	C16.199,296.901,0,303.5,0,317v180c0,4.2,1.8,8.101,4.501,10.501C7.2,510.5,10.8,512,15,512h180c13.5,0,20.099-16.199,10.499-25.499
	l-57.599-57.9l78.9-78.9C232.8,344.001,232.8,334.401,226.8,328.4z"/>
<path style="fill:#0059AA;" d="M486.501,306.501l-58.801,58.5l-78.9-78.9c-5.7-6-15.3-6-21.301,0L285.2,328.4
	c-6,6-6,15.601,0,21.301l78.9,78.9l-57.599,57.9C296.901,495.801,303.8,512,317,512h180c4.2,0,7.8-1.5,10.499-4.2v-0.298
	C510.2,505.101,512,501.2,512,497V317C512,303.8,495.801,296.901,486.501,306.501z"/>
<g>
	<path style="fill:#0D70B2;" d="M226.8,164.101L147.001,84.3L205.5,25.501C215.099,16.201,208.5,0,195,0H15
		C10.8,0,7.2,1.5,4.501,4.501H4.2C1.8,6.901,0,10.8,0,15v180c0,13.2,16.199,20.101,25.499,10.501L83.401,147.9l79.799,79.801
		c5.7,6,15.3,6,21.301,0L206.1,206.1l20.7-20.7C232.8,179.401,232.8,169.801,226.8,164.101z"/>
	<path style="fill:#0D70B2;" d="M507.8,4.501h-0.3C504.8,1.5,501.2,0,497,0H317c-13.2,0-20.099,16.201-10.499,25.501L364.999,84.3
		L285.2,164.101c-6,5.7-6,15.3,0,21.299l20.7,20.7l21.599,21.601c6,6,15.601,6,21.301,0l79.799-79.801l57.902,57.601
		C495.801,215.101,512,208.2,512,195V15C512,10.8,510.2,6.901,507.8,4.501z"/>
</g>
<g>
	<path style="fill:#0059AA;" d="M226.8,328.4c6,6,6,15.601,0,21.301l-78.9,78.9l57.599,57.9C215.099,495.801,208.5,512,195,512H15
		c-4.2,0-7.8-1.5-10.499-4.499l200.7-200.7L226.8,328.4z"/>
	<path style="fill:#0059AA;" d="M512,15v180c0,13.2-16.199,20.101-25.499,10.501L428.599,147.9L348.8,227.701
		c-5.7,6-15.3,6-21.301,0L305.9,206.1L507.499,4.501h0.3C510.2,6.901,512,10.8,512,15z"/>
</g>
<g>
</g>
<g>
</g>
<g>
</g>
<g>
</g>
<g>
</g>
<g>
</g>
<g>
</g>
<g>
</g>
<g>
</g>
<g>
</g>
<g>
</g>
<g>
</g>
<g>
</g>
<g>
</g>
<g>
</g>
</svg>
