<svg height="511pt" viewBox="0 0 511.07003 511" width="511pt" xmlns="http://www.w3.org/2000/svg"><path d="m154.789062 227.855469c17.777344 24.695312 37.441407 47.984375 58.8125 69.648437 21.664063 21.371094 44.949219 41.03125 69.648438 58.8125 9.800781 6.964844 23.207031 5.777344 31.632812-2.796875l39.0625-39.0625c11.078126-11.078125 26.105469-17.304687 41.773438-17.304687 15.664062 0 30.691406 6.226562 41.769531 17.304687l56.28125 56.277344c23.066407 23.070313 23.066407 60.472656 0 83.542969-53.742187 53.742187-134.753906 66.238281-207.285156 50.507812-62.570313-13.628906-113.863281-50.769531-158.523437-95.078125-4.457032-4.453125-8.738282-8.914062-13.105469-13.457031-4.546875-4.367188-9.007813-8.648438-13.460938-13.109375-44.304687-44.65625-81.445312-95.945313-95.078125-158.519531-15.730468-72.53125-3.230468-153.539063 50.511719-207.285156 23.070313-23.066407 60.472656-23.066407 83.542969 0l56.277344 56.28125c11.078124 11.078124 17.300781 26.101562 17.300781 41.769531s-6.222657 30.691406-17.300781 41.769531l-39.0625 39.0625c-8.578126 8.425781-9.761719 21.835938-2.796876 31.636719zm0 0" fill="#24ae5f"/><path d="m60.90625 255.550781c-3.800781 0-7.171875-2.433593-8.371094-6.039062-43.894531-131.667969 13.863282-191.445313 16.34375-193.925781 3.457032-3.367188 8.972656-3.335938 12.390625.070312 3.417969 3.402344 3.472657 8.917969.121094 12.386719-2.242187 2.296875-52.269531 55.414062-12.113281 175.882812.894531 2.691407.445312 5.652344-1.210938 7.953125-1.660156 2.304688-4.324218 3.671875-7.160156 3.671875zm0 0" fill="#4fba6f"/><path d="m353.851562 474.988281c-31.4375-.46875-62.589843-6.007812-92.257812-16.410156-4.628906-1.542969-7.125-6.542969-5.582031-11.167969 1.539062-4.625 6.539062-7.125 11.167969-5.582031 121.421874 40.484375 175.335937-11.554687 175.859374-12.09375 2.21875-2.285156 5.496094-3.199219 8.578126-2.390625 3.082031.808594 5.488281 3.214844 6.296874 6.296875.808594 3.082031-.105468 6.359375-2.390624 8.578125-1.808594 1.804688-33.839844 32.769531-101.671876 32.769531zm0 0" fill="#4fba6f"/><g fill="#ff5364"><path d="m511.070312 194.242188c0 14.625-11.855468 26.480468-26.484374 26.480468-14.625 0-26.480469-11.855468-26.480469-26.480468s11.855469-26.484376 26.480469-26.484376c14.628906 0 26.484374 11.859376 26.484374 26.484376zm0 0"/><path d="m413.964844 194.242188c0 14.625-11.855469 26.480468-26.480469 26.480468s-26.484375-11.855468-26.484375-26.480468 11.859375-26.484376 26.484375-26.484376 26.480469 11.859376 26.480469 26.484376zm0 0"/><path d="m316.863281 194.242188c0 14.625-11.855469 26.480468-26.484375 26.480468-14.625 0-26.480468-11.855468-26.480468-26.480468s11.855468-26.484376 26.480468-26.484376c14.628906 0 26.484375 11.859376 26.484375 26.484376zm0 0"/></g></svg>