<svg height="511pt" viewBox="0 0 511.06988 511" width="511pt" xmlns="http://www.w3.org/2000/svg"><path d="m154.789062 227.855469c17.777344 24.695312 37.441407 47.984375 58.8125 69.648437 21.664063 21.371094 44.949219 41.03125 69.648438 58.808594 9.800781 6.96875 23.207031 5.78125 31.632812-2.792969l39.0625-39.0625c11.078126-11.078125 26.105469-17.304687 41.773438-17.304687 15.664062 0 30.691406 6.226562 41.769531 17.304687l56.28125 56.277344c23.066407 23.070313 23.066407 60.472656 0 83.542969-53.742187 53.742187-134.753906 66.238281-207.285156 50.507812-62.570313-13.628906-113.863281-50.769531-158.523437-95.078125-4.457032-4.457031-8.738282-8.914062-13.105469-13.457031-4.546875-4.367188-9.007813-8.648438-13.460938-13.109375-44.304687-44.65625-81.445312-95.945313-95.078125-158.519531-15.730468-72.53125-3.230468-153.539063 50.511719-207.285156 23.070313-23.066407 60.472656-23.066407 83.542969 0l56.277344 56.28125c11.078124 11.078124 17.300781 26.101562 17.300781 41.769531s-6.222657 30.691406-17.300781 41.769531l-39.0625 39.0625c-8.578126 8.425781-9.761719 21.835938-2.796876 31.636719zm0 0" fill="#24ae5f"/><path d="m60.902344 255.550781c-3.800782 0-7.171875-2.429687-8.375-6.035156-43.886719-131.671875 13.875-191.445313 16.355468-193.929687 3.457032-3.367188 8.972657-3.335938 12.390626.066406 3.417968 3.40625 3.472656 8.921875.121093 12.390625-2.246093 2.300781-52.277343 55.414062-12.117187 175.886719.894531 2.695312.441406 5.652343-1.21875 7.953124-1.65625 2.300782-4.320313 3.664063-7.15625 3.667969zm0 0" fill="#4fba6f"/><path d="m353.859375 474.984375c-31.441406-.46875-62.597656-6.007813-92.265625-16.414063-3.074219-.933593-5.394531-3.460937-6.066406-6.601562-.667969-3.140625.417968-6.394531 2.839844-8.503906 2.417968-2.105469 5.792968-2.734375 8.8125-1.636719 120.574218 40.164063 173.6875-9.964844 175.890624-12.121094 3.472657-3.335937 8.980469-3.273437 12.375.140625 3.398438 3.414063 3.429688 8.921875.070313 12.375-1.800781 1.804688-33.824219 32.761719-101.65625 32.761719zm0 0" fill="#4fba6f"/><path d="m154.875 406.105469 341.132812-341.132813c10.339844-10.339844 10.339844-27.109375 0-37.453125l-12.425781-12.421875c-10.339843-10.34375-27.109375-10.34375-37.449219 0l-32.167968 32.164063-217.597656 217.601562-47.226563 47.226563-52.96875 52.964844-82.039063 82.042968c-10.34375 10.339844-10.34375 27.109375 0 37.449219l12.421876 12.425781c10.34375 10.339844 27.113281 10.339844 37.453124 0zm0 0" fill="#ff5364"/></svg>