<svg height="511pt" viewBox="0 0 511.06988 511" width="511pt" xmlns="http://www.w3.org/2000/svg"><path d="m154.789062 227.855469c17.777344 24.695312 37.441407 47.984375 58.8125 69.648437 21.664063 21.371094 44.949219 41.03125 69.648438 58.808594 9.800781 6.96875 23.207031 5.78125 31.632812-2.792969l39.0625-39.0625c11.078126-11.078125 26.105469-17.304687 41.773438-17.304687 15.664062 0 30.691406 6.226562 41.769531 17.304687l56.28125 56.277344c23.066407 23.070313 23.066407 60.472656 0 83.542969-53.742187 53.742187-134.753906 66.238281-207.285156 50.507812-62.570313-13.628906-113.863281-50.769531-158.523437-95.078125-4.457032-4.457031-8.738282-8.914062-13.105469-13.457031-4.546875-4.367188-9.007813-8.648438-13.460938-13.109375-44.304687-44.65625-81.445312-95.945313-95.078125-158.519531-15.730468-72.53125-3.230468-153.539063 50.511719-207.285156 23.070313-23.066407 60.472656-23.066407 83.542969 0l56.277344 56.28125c11.078124 11.078124 17.300781 26.101562 17.300781 41.769531s-6.222657 30.691406-17.300781 41.769531l-39.0625 39.0625c-8.578126 8.425781-9.761719 21.835938-2.796876 31.636719zm0 0" fill="#24ae5f"/><path d="m60.902344 255.550781c-3.800782 0-7.171875-2.429687-8.375-6.035156-43.886719-131.671875 13.875-191.445313 16.355468-193.929687 3.457032-3.367188 8.972657-3.335938 12.390626.066406 3.417968 3.40625 3.472656 8.921875.121093 12.390625-2.246093 2.300781-52.277343 55.414062-12.117187 175.886719.894531 2.695312.441406 5.652343-1.21875 7.953124-1.65625 2.300782-4.320313 3.664063-7.15625 3.667969zm0 0" fill="#4fba6f"/><path d="m353.859375 474.984375c-31.441406-.46875-62.597656-6.007813-92.265625-16.414063-3.074219-.933593-5.394531-3.460937-6.066406-6.601562-.667969-3.140625.417968-6.394531 2.839844-8.503906 2.417968-2.105469 5.792968-2.734375 8.8125-1.636719 120.574218 40.164063 173.6875-9.964844 175.890624-12.121094 3.472657-3.335937 8.980469-3.273437 12.375.140625 3.398438 3.414063 3.429688 8.921875.070313 12.375-1.800781 1.804688-33.824219 32.761719-101.65625 32.761719zm0 0" fill="#4fba6f"/><g fill="#ff5364"><path d="m510.894531 229.824219c.082031 2.207031-.757812 4.347656-2.316406 5.914062-1.554687 1.578125-3.679687 2.46875-5.894531 2.472657h-32.382813c-4.757812-.039063-8.632812-3.835938-8.769531-8.589844-4.410156-97.644532-82.570312-175.808594-180.21875-180.21875-4.753906-.136719-8.550781-4.011719-8.585938-8.769532v-32.382812c0-2.214844.890626-4.339844 2.46875-5.890625 1.566407-1.558594 3.707032-2.3984375 5.917969-2.3203125 125.046875 4.3749995 225.40625 104.7343755 229.78125 229.7851565zm0 0"/><path d="m408.015625 229.082031c.105469 2.402344-.78125 4.738281-2.449219 6.464844-1.671875 1.726563-3.976562 2.6875-6.378906 2.664063h-31.734375c-4.480469.046874-8.261719-3.316407-8.738281-7.769532-3.769532-41.539062-36.683594-74.449218-78.222656-78.21875-4.453126-.476562-7.816407-4.261718-7.765626-8.738281v-31.738281c-.027343-2.398438.933594-4.707032 2.660157-6.375 1.726562-1.671875 4.066406-2.558594 6.464843-2.449219 67.683594 4.589844 121.570313 58.476563 126.164063 126.160156zm0 0"/></g></svg>