<svg height="511pt" viewBox="0 0 511.06991 511" width="511pt" xmlns="http://www.w3.org/2000/svg"><path d="m154.789062 227.855469c17.777344 24.695312 37.441407 47.984375 58.8125 69.648437 21.664063 21.371094 44.949219 41.03125 69.648438 58.808594 9.800781 6.96875 23.207031 5.78125 31.632812-2.792969l39.0625-39.0625c11.078126-11.078125 26.105469-17.304687 41.773438-17.304687 15.664062 0 30.691406 6.226562 41.769531 17.304687l56.28125 56.277344c23.066407 23.070313 23.066407 60.472656 0 83.542969-53.742187 53.742187-134.753906 66.238281-207.285156 50.507812-62.570313-13.628906-113.863281-50.769531-158.523437-95.078125-4.457032-4.457031-8.738282-8.914062-13.105469-13.457031-4.546875-4.367188-9.007813-8.648438-13.460938-13.109375-44.304687-44.65625-81.445312-95.945313-95.078125-158.519531-15.730468-72.53125-3.230468-153.539063 50.511719-207.285156 23.070313-23.066407 60.472656-23.066407 83.542969 0l56.277344 56.28125c11.078124 11.078124 17.300781 26.101562 17.300781 41.769531s-6.222657 30.691406-17.300781 41.769531l-39.0625 39.0625c-8.578126 8.425781-9.761719 21.835938-2.796876 31.636719zm0 0" fill="#24ae5f"/><path d="m60.902344 255.550781c-3.800782 0-7.171875-2.429687-8.375-6.035156-43.886719-131.671875 13.875-191.445313 16.355468-193.929687 3.457032-3.367188 8.972657-3.335938 12.390626.070312 3.417968 3.402344 3.472656 8.917969.121093 12.386719-2.246093 2.300781-52.277343 55.414062-12.117187 175.886719.894531 2.695312.441406 5.652343-1.21875 7.953124-1.65625 2.300782-4.320313 3.664063-7.15625 3.667969zm0 0" fill="#4fba6f"/><path d="m353.859375 474.984375c-31.441406-.46875-62.597656-6.007813-92.265625-16.414063-3.074219-.933593-5.394531-3.460937-6.066406-6.601562-.667969-3.140625.417968-6.394531 2.839844-8.503906 2.417968-2.105469 5.792968-2.734375 8.8125-1.636719 120.574218 40.164063 173.6875-9.964844 175.890624-12.121094 3.472657-3.335937 8.980469-3.273437 12.375.140625 3.398438 3.414063 3.429688 8.921875.070313 12.375-1.800781 1.804688-33.824219 32.761719-101.65625 32.761719zm0 0" fill="#4fba6f"/><path d="m261.304688 100.050781 31.21875 31.144531 128.574218-128.574218c3.445313-3.449219 9.035156-3.449219 12.480469 0l74.90625 74.902344c3.449219 3.449218 3.449219 9.039062 0 12.484374l-128.574219 128.574219 31.144532 31.21875c2.480468 2.480469 3.257812 6.199219 1.972656 9.464844-1.28125 3.269531-4.378906 5.464844-7.886719 5.597656l-149.742187-.007812c-2.453126.089843-4.835938-.84375-6.570313-2.578125s-2.671875-4.117188-2.578125-6.570313l-.007812-149.742187c.128906-3.507813 2.328124-6.605469 5.59375-7.886719 3.269531-1.285156 6.988281-.507813 9.46875 1.972656zm0 0" fill="#f0c419"/></svg>