<svg height="511pt" viewBox="0 -46 511.9344 511" width="511pt" xmlns="http://www.w3.org/2000/svg"><path d="m194.207031 9.265625v400.949219c-.011719 3.503906-2.09375 6.671875-5.308593 8.070312-3.214844 1.394532-6.953126.757813-9.523438-1.625l-108.753906-100.988281v-211.863281l108.753906-100.984375c2.570312-2.386719 6.308594-3.023438 9.523438-1.625 3.214843 1.394531 5.296874 4.5625 5.308593 8.066406zm0 0" fill="#95a5a5"/><path d="m17.65625 103.808594h52.964844v211.863281h-52.964844c-9.75 0-17.65625-7.902344-17.65625-17.65625v-176.550781c0-9.75 7.90625-17.65625 17.65625-17.65625zm0 0" fill="#547580"/><path d="m509.351562 290.070312c1.652344 1.652344 2.582032 3.890626 2.582032 6.226563 0 2.332031-.929688 4.574219-2.582032 6.222656l-36.988281 36.988281c-1.648437 1.652344-3.886719 2.582032-6.222656 2.582032s-4.574219-.929688-6.222656-2.582032l-80.332031-80.332031-80.332032 80.332031c-1.648437 1.652344-3.886718 2.582032-6.222656 2.582032s-4.574219-.929688-6.222656-2.582032l-36.988282-36.988281c-1.652343-1.648437-2.582031-3.890625-2.582031-6.222656 0-2.335937.929688-4.574219 2.582031-6.226563l80.332032-80.328124-80.332032-80.332032c-1.652343-1.648437-2.582031-3.886718-2.582031-6.222656s.929688-4.574219 2.582031-6.222656l36.988282-36.988282c1.648437-1.65625 3.886718-2.582031 6.222656-2.582031s4.574219.925781 6.222656 2.582031l80.332032 80.332032 80.332031-80.332032c1.648437-1.65625 3.886719-2.582031 6.222656-2.582031s4.574219.925781 6.222656 2.582031l36.988281 36.988282c1.652344 1.648437 2.582032 3.886718 2.582032 6.222656s-.929688 4.574219-2.582032 6.222656l-80.332031 80.332032zm0 0" fill="#ff5364"/></svg>