<svg height="511pt" viewBox="0 -2 511.99662 511" width="511pt" xmlns="http://www.w3.org/2000/svg"><path d="m17.65625 148.34375h52.964844v211.863281h-52.964844c-9.75 0-17.65625-7.902343-17.65625-17.65625v-176.550781c0-9.75 7.90625-17.65625 17.65625-17.65625zm0 0" fill="#547580"/><path d="m194.207031 53.800781v400.949219c-.011719 3.503906-2.09375 6.671875-5.308593 8.070312-3.214844 1.394532-6.953126.757813-9.523438-1.625l-108.753906-100.988281v-211.863281l108.753906-100.984375c2.570312-2.386719 6.308594-3.023437 9.523438-1.625 3.214843 1.394531 5.296874 4.5625 5.308593 8.066406zm0 0" fill="#95a5a5"/><g fill="#ff5364"><path d="m362.195312 44.003906c56.09375 55.597656 87.648438 131.300782 87.648438 210.277344s-31.554688 154.679688-87.648438 210.273438l43.851563 43.507812c67.796875-67.046875 105.949219-158.433594 105.949219-253.78125 0-95.351562-38.152344-186.738281-105.949219-253.78125zm0 0"/><path d="m274.5 377.542969c32.882812-32.589844 51.382812-76.96875 51.382812-123.265625s-18.5-90.675782-51.382812-123.265625l43.851562-43.507813c44.488282 44.09375 69.511719 104.136719 69.511719 166.773438 0 62.636718-25.023437 122.675781-69.511719 166.769531zm0 0"/><path d="m194.207031 205.105469 33.574219-30.628907c22.957031 20.164063 36.117188 49.242188 36.117188 79.800782 0 30.554687-13.160157 59.632812-36.117188 79.800781l-33.574219-30.632813zm0 0"/></g></svg>