<svg height="512pt" viewBox="0 -97 512 512" width="512pt" xmlns="http://www.w3.org/2000/svg"><path d="m35.308594.046875h300.140625c19.5 0 35.308593 15.808594 35.308593 35.3125v247.171875c0 19.5-15.808593 35.308594-35.308593 35.308594h-300.140625c-19.5 0-35.308594-15.808594-35.308594-35.308594v-247.171875c0-19.503906 15.808594-35.3125 35.308594-35.3125zm0 0" fill="#7d6599"/><path d="m498.492188 316.554688-127.734376-82.34375v-150.535157l127.734376-82.34375c2.664062-1.65625 6.007812-1.777343 8.785156-.316406 2.773437 1.457031 4.574218 4.277344 4.722656 7.410156v301.039063c-.148438 3.132812-1.949219 5.949218-4.722656 7.410156-2.777344 1.457031-6.121094 1.335938-8.785156-.320312zm0 0" fill="#3d324c"/><path d="m273.65625 158.945312c0 48.753907-39.523438 88.273438-88.277344 88.273438s-88.277344-39.519531-88.277344-88.273438c0-48.753906 39.523438-88.277343 88.277344-88.277343s88.277344 39.523437 88.277344 88.277343zm0 0" fill="#f3d55b"/><g fill="#b49aca"><path d="m35.308594 61.839844c-4.875 0-8.824219-3.953125-8.824219-8.828125v-17.652344c0-4.875 3.949219-8.828125 8.824219-8.828125 4.878906 0 8.828125 3.953125 8.828125 8.828125v17.652344c0 4.875-3.949219 8.828125-8.828125 8.828125zm0 0"/><path d="m35.308594 291.359375c-4.875 0-8.824219-3.953125-8.824219-8.828125v-194.207031c0-4.875 3.949219-8.828125 8.824219-8.828125 4.878906 0 8.828125 3.953125 8.828125 8.828125v194.207031c0 4.875-3.949219 8.828125-8.828125 8.828125zm0 0"/></g></svg>